<?xml version="1.0" encoding="UTF-8"?>
<svg width="16px" height="16px" viewBox="0 0 16 16" version="1.1" xmlns="http://www.w3.org/2000/svg" xmlns:xlink="http://www.w3.org/1999/xlink">
    <!-- Generator: Sketch 43.1 (39012) - http://www.bohemiancoding.com/sketch -->
    <title>down</title>
    <desc>Created with Sketch.</desc>
    <defs></defs>
    <g id="icons" stroke="none" stroke-width="1" fill="none" fill-rule="evenodd">
        <g id="down" fill-rule="nonzero" fill="#CFD7CD">
            <path d="M9.3385695,14.8192292 L15.2003666,5.52120619 C15.9669626,4.30111114 15.965198,2.32644691 15.1964246,1.1098039 C14.8289369,0.523202492 14.3294381,0.192563049 13.8080858,0.190803532 C13.2867334,0.189044016 12.7863521,0.516308956 12.4172941,1.10042459 L7.94900428,8.1818039 L3.36245356,0.903459068 C2.5909449,-0.304799945 1.3496147,-0.300613539 0.581352107,0.912838378 C0.210329526,1.49599712 0.00111418259,2.28964572 4.43729357e-06,3.11815349 C-0.00110530801,3.94666127 0.20598205,4.74171286 0.575439063,5.32736711 L6.56338109,14.8192292 C6.93094852,15.3992129 7.42857493,15.7241685 7.94703327,15.7227694 C8.46974421,15.7320951 8.97251912,15.4049713 9.34054051,14.8161027 L9.3385695,14.8192292 Z" id="Shape"></path>
        </g>
    </g>
</svg>