<?xml version="1.0" encoding="UTF-8"?>
<svg width="66px" height="48px" viewBox="0 0 66 48" version="1.1" xmlns="http://www.w3.org/2000/svg" xmlns:xlink="http://www.w3.org/1999/xlink">
    <!-- Generator: Sketch 43.1 (39012) - http://www.bohemiancoding.com/sketch -->
    <title>link</title>
    <desc>Created with Sketch.</desc>
    <defs></defs>
    <g id="icons" stroke="none" stroke-width="1" fill="none" fill-rule="evenodd">
        <g id="link" fill="#CFD7CD">
            <path d="M50,32.9924328 C58.8759714,32.7257486 66,25.4439103 66,16.5 C66,7.385298 58.6107493,0 49.4956465,0 L35.5043535,0 C26.3954529,0 19,7.38730163 19,16.5 C19,25.614702 26.3892507,33 35.5043535,33 L40,33 L40,29 L35.5043535,29 C28.5973862,29 23,23.4045596 23,16.5 C23,9.59905032 28.6019814,4 35.5043535,4 L49.4956465,4 C56.4026138,4 62,9.59544039 62,16.5 C62,23.2320669 56.6688515,28.7251759 50,28.9900032 L50,32.9924328 L50,32.9924328 Z" id="Combined-Shape"></path>
            <path d="M16,15.0075672 C7.12402865,15.2742514 0,22.5560897 0,31.5 C0,40.614702 7.38925073,48 16.5043535,48 L30.4956465,48 C39.6045471,48 47,40.6126984 47,31.5 C47,22.385298 39.6107493,15 30.4956465,15 L26,15 L26,19 L30.4956465,19 C37.4026138,19 43,24.5954404 43,31.5 C43,38.4009497 37.3980186,44 30.4956465,44 L16.5043535,44 C9.59738622,44 4,38.4045596 4,31.5 C4,24.7679331 9.33114847,19.2748241 16,19.0099968 L16,15.0075672 L16,15.0075672 Z" id="Combined-Shape"></path>
        </g>
    </g>
</svg>